<svg xmlns="http://www.w3.org/2000/svg" id="Layer_2" data-name="Layer 2" viewBox="0 0 376.22 422.18"><defs><style>      .cls-1 {        fill: #112c4e;      }      .cls-1, .cls-2, .cls-3 {        stroke-width: 0px;      }      .cls-2 {        fill: #1585ae;      }      .cls-3 {        fill: #b81d47;      }    </style></defs><g id="Layer_1-2" data-name="Layer 1"><path class="cls-2" d="M289.85,222.62c0-3.09,2.5-5.6,5.6-5.6h34.25c-.45-8.64-3.43-18.22-9.24-28.29l-6.56-11.36c-4.37-7.57-36.02-62.38-58.61-101.51h-70.78c-1.64,0-4.58.32-6.17.67-.6.15-2.53.88-3.45,2.24-1.7,2.51-1.83,6.62-1.78,7.58.17,2.8-.45,6.68-1.49,9.36l-18.76,61.5c-.41,1.31-.77,3.67-.84,5.2h80.97v-63.57c0-3.09,2.51-5.6,5.6-5.6s5.6,2.51,5.6,5.6v67.92c.05.4.08.82.08,1.25,0,3.09-1.39,5.6-3.09,5.6h-89.18v9.06s0,7.46,0,7.46v26.9s62.02,0,62.02,0c3.09,0,5.6,2.51,5.6,5.6s-2.51,5.6-5.6,5.6h-67.57c-2.76,0-5.04-2.01-5.5-4.64-.09-.4-.14-.8-.14-1.23v-32.23s0-7.45,0-7.45v-19.8c0-2.61.59-6.46,1.36-8.95l18.82-61.68c.05-.16.11-.32.17-.48.46-1.13.86-3.51.78-4.72,0-.12-.02-.39-.02-.74h-10.68v11.22c0,3.27-2.68,5.93-5.95,5.91l-5.03-.03c-3.27-.02-5.94-2.71-5.94-5.98v-16.34c0-3.27,2.67-5.93,5.94-5.91l4.68.02c.33-.06.66-.1,1.01-.1h18.23c.41-.88.88-1.76,1.45-2.6,3.58-5.28,9.64-6.74,10.32-6.89,2.41-.53,6.1-.93,8.57-.93h64.32c-6.43-11.14-11.61-20.11-14.39-24.93l-6.56-11.36c-21.85-37.85-57.61-37.85-79.46,0l-6.56,11.36c-12.46,21.57-58.1,100.63-58.1,100.63-7.81,13.53-15.16,26.25-21.36,37l-6.56,11.36c-21.85,37.85-3.97,68.81,39.73,68.81h185.15c26.77,0,43.82-11.63,48.02-29.33h-33.31c-3.09,0-5.6-2.51-5.6-5.6M115.9,228.03h-43.78c-3.09,0-5.6-2.51-5.6-5.6s2.51-5.6,5.6-5.6h43.78c3.09,0,5.6,2.51,5.6,5.6s-2.51,5.6-5.6,5.6ZM254.89,244.89c-14.08,0-25.53-11.45-25.53-25.53s11.45-25.53,25.53-25.53,25.53,11.45,25.53,25.53-11.45,25.53-25.53,25.53Z"></path><path class="cls-2" d="M254.89,205.02c-7.91,0-14.34,6.43-14.34,14.34s6.43,14.34,14.34,14.34,14.34-6.43,14.34-14.34-6.43-14.34-14.34-14.34"></path><path class="cls-1" d="M32.66,405.71h-4.77v15.81c0,.13-.04.24-.12.34-.08.1-.19.15-.32.15h-1.35c-.13,0-.24-.05-.32-.15-.08-.1-.12-.21-.12-.34v-15.81h-4.77c-.13,0-.24-.03-.34-.1-.1-.06-.15-.16-.15-.29v-1.06c0-.13.05-.23.15-.31.1-.08.21-.12.34-.12h11.77c.31,0,.47.14.47.43v1.06c0,.26-.15.39-.47.39"></path><path class="cls-1" d="M46.57,421.62c0,.26-.14.39-.42.39h-1.44c-.11,0-.2-.04-.27-.11-.07-.07-.12-.16-.15-.26l-1.59-5.63h-6.34l-1.57,5.63c-.03.1-.09.18-.17.26-.08.07-.17.11-.27.11h-1.44c-.28,0-.42-.13-.42-.39,0-.08,0-.14.02-.17l4.53-15.93c.1-.38.24-.68.43-.92.19-.24.4-.43.62-.56.23-.14.47-.24.72-.29.25-.06.49-.09.72-.09s.46.02.71.07c.24.05.48.14.71.28.23.14.44.33.62.56.19.24.33.54.43.92l4.53,15.96s.02.09.02.17M40.01,406.03c-.08-.29-.24-.44-.46-.44-.25,0-.41.15-.49.44l-2.23,8.05h5.41l-2.23-8.05Z"></path><path class="cls-1" d="M58.19,405.71h-4.77v15.81c0,.13-.04.24-.12.34-.08.1-.19.15-.32.15h-1.35c-.13,0-.24-.05-.32-.15-.08-.1-.12-.21-.12-.34v-15.81h-4.77c-.13,0-.25-.03-.34-.1-.1-.06-.15-.16-.15-.29v-1.06c0-.13.05-.23.15-.31.1-.08.21-.12.34-.12h11.77c.31,0,.46.14.46.43v1.06c0,.26-.15.39-.46.39"></path><path class="cls-1" d="M72.09,421.62c0,.26-.14.39-.42.39h-1.44c-.11,0-.2-.04-.27-.11-.06-.07-.11-.16-.15-.26l-1.59-5.63h-6.34l-1.57,5.63c-.03.1-.09.18-.17.26-.08.07-.17.11-.27.11h-1.44c-.28,0-.42-.13-.42-.39,0-.08,0-.14.02-.17l4.53-15.93c.1-.38.24-.68.43-.92.19-.24.4-.43.62-.56.23-.14.47-.24.72-.29.25-.06.49-.09.72-.09s.46.02.71.07c.24.05.48.14.71.28.23.14.44.33.62.56.19.24.33.54.43.92l4.53,15.96s.02.09.02.17M65.53,406.03c-.08-.29-.24-.44-.46-.44-.25,0-.41.15-.49.44l-2.23,8.05h5.41l-2.23-8.05Z"></path><path class="cls-1" d="M86.65,416.99c0,1.03-.19,1.88-.58,2.55-.38.67-.9,1.2-1.57,1.59-.66.39-1.42.67-2.29.82-.87.15-1.77.23-2.72.23-.82,0-1.57-.02-2.25-.05-.69-.03-1.26-.09-1.74-.17-.28-.03-.48-.11-.61-.24-.13-.13-.19-.35-.19-.66v-16.3c0-.55.26-.86.78-.9.41-.05.96-.09,1.65-.13.69-.04,1.44-.06,2.24-.06.98,0,1.9.07,2.77.22.86.15,1.62.4,2.28.76.65.36,1.17.84,1.55,1.44.38.6.58,1.37.58,2.3v.39c0,.91-.23,1.7-.69,2.36-.46.66-1.1,1.15-1.93,1.48.85.3,1.51.79,1.99,1.5.48.7.72,1.53.72,2.47v.42ZM84.33,408.38c0-.59-.12-1.07-.35-1.43-.23-.37-.57-.65-1-.87-.43-.21-.95-.35-1.55-.43-.6-.07-1.28-.11-2.02-.11-.42,0-.85,0-1.27.03-.42.02-.81.03-1.15.05v6.07h3.76c.7,0,1.28-.08,1.74-.23.46-.15.83-.37,1.11-.64.28-.27.47-.58.57-.93.11-.35.16-.72.16-1.11v-.39ZM84.43,416.57c0-.41-.06-.8-.17-1.18-.11-.38-.31-.71-.6-.99-.28-.29-.66-.52-1.13-.69-.47-.17-1.07-.26-1.78-.26h-3.76v6.75c.41.02.82.04,1.26.06.43.02.86.04,1.28.04.75,0,1.43-.05,2.04-.15.61-.1,1.13-.27,1.55-.51.42-.25.75-.58.98-1.01.23-.42.34-.97.34-1.65v-.42Z"></path><path class="cls-1" d="M102.19,421.62c0,.26-.14.39-.42.39h-1.44c-.12,0-.21-.04-.27-.11-.06-.07-.11-.16-.15-.26l-1.59-5.63h-6.34l-1.57,5.63c-.03.1-.09.18-.17.26-.08.07-.17.11-.27.11h-1.44c-.28,0-.42-.13-.42-.39,0-.08,0-.14.02-.17l4.53-15.93c.1-.38.24-.68.43-.92.19-.24.39-.42.62-.56.23-.14.47-.24.72-.29.25-.06.49-.09.72-.09s.47.02.71.07c.24.05.48.14.71.28.23.14.44.33.62.56.19.24.33.54.43.92l4.53,15.96s.02.09.02.17M95.64,406.03c-.08-.29-.24-.44-.47-.44-.24,0-.41.15-.49.44l-2.23,8.05h5.41l-2.23-8.05ZM98.89,398.93c0,.07-.03.13-.1.2l-2.77,3.08c-.11.13-.2.23-.27.28-.06.06-.16.09-.29.09h-1.32c-.15,0-.22-.06-.22-.17,0-.1.03-.18.1-.24l2.4-3.04c.11-.13.2-.22.27-.28.06-.06.17-.09.32-.09h1.62c.18,0,.27.06.27.17Z"></path><path class="cls-1" d="M117.41,421.8c-.14.14-.3.21-.5.21h-1.5c-.39,0-.65-.13-.78-.39l-7.56-14.37s-.06-.07-.07-.07c-.02,0-.03.02-.03.07v14.29c0,.13-.04.24-.12.33-.08.09-.19.13-.32.13h-1.27c-.13,0-.24-.02-.32-.05-.08-.03-.12-.11-.12-.24v-17.2c0-.2.07-.36.21-.49.14-.13.31-.2.5-.2h1.35c.34,0,.57.04.69.11.11.07.22.2.32.38l7.51,14.29.05.07s.02-.02.02-.07v-14.32c0-.13.04-.24.12-.33.08-.09.18-.13.31-.13h1.28c.13,0,.23.05.32.13.08.09.12.2.12.33v17.01c0,.2-.07.36-.21.5"></path><path class="cls-1" d="M132.57,404.17c0,.08-.02.17-.07.27l-3.79,8.52c-.23.49-.45.86-.66,1.1-.21.25-.43.42-.66.51v6.95c0,.13-.04.24-.12.34-.08.1-.19.15-.32.15h-1.35c-.13,0-.24-.05-.32-.15-.08-.1-.12-.21-.12-.34v-6.95c-.23-.08-.45-.25-.66-.5-.21-.25-.43-.63-.66-1.11l-3.77-8.52c-.05-.1-.07-.19-.07-.27,0-.23.14-.34.42-.34h1.49c.08,0,.17.04.26.11.09.07.15.15.18.23l3.38,7.93c.13.28.24.45.32.53.08.07.16.11.25.11s.16-.04.24-.11c.08-.07.19-.25.32-.53l3.4-7.93c.03-.08.09-.16.16-.23.07-.07.16-.11.26-.11h1.49c.28,0,.42.11.42.34"></path><path class="cls-1" d="M146.1,421.62c0,.26-.14.39-.42.39h-1.44c-.11,0-.2-.04-.27-.11-.06-.07-.11-.16-.15-.26l-1.59-5.63h-6.34l-1.57,5.63c-.03.1-.09.18-.17.26-.08.07-.17.11-.27.11h-1.44c-.28,0-.42-.13-.42-.39,0-.08,0-.14.02-.17l4.53-15.93c.1-.38.24-.68.43-.92.19-.24.39-.43.62-.56.23-.14.47-.24.72-.29.25-.06.49-.09.72-.09s.46.02.71.07c.24.05.48.14.71.28.23.14.44.33.62.56.19.24.33.54.43.92l4.53,15.96s.02.09.02.17M139.54,406.03c-.08-.29-.24-.44-.46-.44-.24,0-.41.15-.49.44l-2.23,8.05h5.41l-2.23-8.05Z"></path><path class="cls-1" d="M151.07,421.87c-.08.1-.19.15-.32.15h-1.35c-.13,0-.24-.05-.32-.15-.08-.1-.12-.21-.12-.34v-17.23c0-.13.04-.24.12-.33.08-.09.19-.13.32-.13h1.35c.13,0,.24.05.32.13.08.09.12.2.12.33v17.23c0,.13-.04.24-.12.34"></path><path class="cls-1" d="M173.19,421.77c0,.16-.11.24-.32.24h-1.91c-.21,0-.39-.08-.54-.24l-6.9-8.4v8.15c0,.13-.04.24-.12.34-.08.1-.19.15-.32.15h-1.35c-.13,0-.24-.05-.32-.15-.08-.1-.12-.21-.12-.34v-17.23c0-.13.04-.24.13-.33.09-.09.2-.13.33-.13h1.3c.13,0,.24.05.33.13.09.09.14.2.14.33v7.91l7.05-8.15c.08-.08.15-.14.21-.17.06-.03.15-.05.28-.05h1.76c.23,0,.34.09.34.27,0,.1-.03.18-.1.24l-7.37,8.32,7.37,8.81c.08.08.12.18.12.29"></path><path class="cls-1" d="M187.83,414.5c0,1.35-.16,2.52-.49,3.49-.33.97-.78,1.77-1.37,2.39-.59.62-1.29,1.08-2.1,1.37-.81.29-1.7.44-2.66.44s-1.85-.15-2.66-.44c-.81-.29-1.51-.75-2.1-1.37-.59-.62-1.05-1.42-1.39-2.39-.34-.97-.5-2.13-.5-3.49v-3.16c0-1.35.17-2.52.5-3.49.34-.97.8-1.77,1.39-2.39.59-.62,1.29-1.08,2.1-1.37.81-.29,1.7-.44,2.66-.44s1.85.15,2.66.44c.81.29,1.51.75,2.1,1.37.59.62,1.05,1.41,1.37,2.39.33.97.49,2.13.49,3.49v3.16ZM185.55,411.34c0-1.03-.1-1.9-.3-2.62-.2-.72-.49-1.3-.87-1.76-.38-.46-.83-.79-1.37-.99-.54-.2-1.14-.31-1.81-.31s-1.27.1-1.81.31c-.54.2-1,.54-1.38.99-.38.46-.67,1.05-.88,1.76-.2.72-.3,1.59-.3,2.62v3.16c0,1.03.1,1.9.3,2.62.2.72.49,1.31.87,1.76.37.46.83.79,1.38.99.55.2,1.15.31,1.82.31s1.27-.1,1.81-.31c.54-.2.99-.53,1.37-.99.37-.46.66-1.04.87-1.76.2-.72.3-1.59.3-2.62v-3.16ZM180.02,401.72c0,.13-.05.24-.15.33-.1.09-.21.13-.34.13h-.95c-.13,0-.24-.05-.34-.13-.1-.09-.15-.2-.15-.33v-1.98c0-.13.05-.24.15-.34.1-.1.21-.15.34-.15h.95c.13,0,.24.05.34.15.1.1.15.21.15.34v1.98ZM184.3,401.72c0,.13-.05.24-.15.33-.1.09-.21.13-.34.13h-.96c-.13,0-.24-.05-.34-.13-.1-.09-.15-.2-.15-.33v-1.98c0-.13.05-.24.15-.34.1-.1.21-.15.34-.15h.96c.13,0,.24.05.34.15.1.1.15.21.15.34v1.98Z"></path><path class="cls-1" d="M201.56,421.89c-.1.08-.21.12-.34.12h-9.42c-.78,0-1.32-.11-1.6-.34-.29-.23-.43-.67-.43-1.32,0-.21.03-.46.09-.73.06-.28.15-.5.28-.68l8.76-12.73c.05-.07.07-.13.07-.2,0-.11-.08-.17-.24-.17h-8.13c-.13,0-.24-.04-.34-.11-.1-.07-.15-.18-.15-.31v-1.16c0-.13.05-.24.15-.31.1-.07.21-.11.34-.11h8.71c.69,0,1.2.1,1.55.31.35.2.53.64.53,1.31,0,.23-.03.48-.1.76-.07.28-.16.51-.29.68l-8.74,12.75c-.05.08-.07.15-.07.22,0,.1.08.15.24.15h8.79c.13,0,.24.04.34.11.1.07.15.18.15.31v1.15c0,.13-.05.24-.15.32"></path><path class="cls-1" d="M215.08,421.84c-.04.06-.1.11-.18.12-.33.05-.91.1-1.76.15-.85.05-1.85.07-3.01.07-.65,0-1.29-.05-1.92-.15-.63-.1-1.19-.31-1.68-.62-.49-.32-.88-.77-1.17-1.37-.29-.6-.44-1.4-.44-2.41v-13.31c0-.13.05-.25.15-.34.1-.1.21-.15.34-.15h1.25c.13,0,.24.05.34.15.1.1.15.21.15.34v13.31c0,.47.04.87.11,1.19.07.32.22.58.43.78.21.2.51.35.91.44.39.09.91.13,1.57.13h4.72c.18,0,.27.1.27.29v1.15c0,.08-.02.16-.06.22"></path><path class="cls-1" d="M227.17,421.94c-.04.07-.1.11-.18.12-.23.03-.54.05-.93.06-.39,0-.81.02-1.26.04-.45.02-.9.02-1.36.02h-1.22c-1.73,0-3.03-.35-3.9-1.05-.87-.7-1.31-1.87-1.31-3.5v-9.42c0-1.63.44-2.8,1.31-3.5.87-.7,2.17-1.05,3.9-1.05.36,0,.76,0,1.21.01.45,0,.89.02,1.33.02.44,0,.86.02,1.25.05.39.02.72.05.98.06.08.02.14.06.18.12.04.06.06.14.06.22v1.22c0,.2-.09.29-.27.29h-4.72c-.65,0-1.17.05-1.57.13-.39.09-.69.24-.91.44-.21.21-.35.47-.43.8-.07.33-.11.72-.11,1.18v3.4h7.51c.13,0,.24.05.34.14.1.1.15.21.15.34v.92c0,.13-.05.24-.15.34-.1.1-.21.14-.34.14h-7.51v4.13c0,.47.04.87.11,1.19.07.32.22.58.43.79.21.2.51.35.91.44.39.09.91.14,1.57.14h4.72c.18,0,.27.1.27.29v1.25c0,.08-.02.16-.06.22"></path><path class="cls-1" d="M242.38,421.77c0,.16-.11.24-.32.24h-1.91c-.21,0-.39-.08-.54-.24l-6.9-8.4v8.15c0,.13-.04.24-.12.34-.08.1-.19.15-.32.15h-1.35c-.13,0-.24-.05-.32-.15-.08-.1-.12-.21-.12-.34v-17.23c0-.13.04-.24.13-.33.09-.09.2-.13.33-.13h1.3c.13,0,.24.05.33.13.09.09.13.2.13.33v7.91l7.05-8.15c.08-.08.15-.14.21-.17.06-.03.15-.05.28-.05h1.76c.23,0,.34.09.34.27,0,.1-.03.18-.1.24l-7.37,8.32,7.37,8.81c.08.08.12.18.12.29"></path><path class="cls-1" d="M254.61,421.94c-.04.07-.1.11-.18.12-.23.03-.54.05-.93.06-.39,0-.81.02-1.26.04-.45.02-.9.02-1.36.02h-1.22c-1.73,0-3.03-.35-3.9-1.05-.87-.7-1.31-1.87-1.31-3.5v-9.42c0-1.63.44-2.8,1.31-3.5.87-.7,2.17-1.05,3.9-1.05.36,0,.76,0,1.21.01.45,0,.89.02,1.33.02.44,0,.86.02,1.25.05.39.02.72.05.98.06.08.02.14.06.18.12s.06.14.06.22v1.22c0,.2-.09.29-.27.29h-4.72c-.65,0-1.17.05-1.57.13-.39.09-.69.24-.9.44-.21.21-.36.47-.43.8-.07.33-.11.72-.11,1.18v3.4h7.51c.13,0,.24.05.34.14.1.1.15.21.15.34v.92c0,.13-.05.24-.15.34-.1.1-.21.14-.34.14h-7.51v4.13c0,.47.04.87.11,1.19.07.32.22.58.43.79.21.2.51.35.9.44.39.09.91.14,1.57.14h4.72c.18,0,.27.1.27.29v1.25c0,.08-.02.16-.06.22"></path><path class="cls-1" d="M270.31,414.57c0,1.31-.18,2.44-.53,3.4-.35.96-.85,1.75-1.49,2.37-.64.62-1.42,1.08-2.34,1.38-.91.3-1.93.45-3.06.45-.47,0-.93,0-1.38-.02-.45-.02-.87-.04-1.27-.06-.4-.02-.75-.05-1.06-.07-.31-.02-.56-.05-.73-.09-.34-.05-.51-.25-.51-.61v-16.81c0-.36.17-.56.51-.61.18-.03.42-.06.73-.09.31-.03.66-.05,1.06-.07.4-.02.82-.05,1.27-.06.45-.02.91-.02,1.38-.02,1.13,0,2.15.15,3.06.44.91.29,1.69.75,2.34,1.38.64.63,1.14,1.42,1.49,2.37.35.95.53,2.09.53,3.41v3.3ZM268.08,411.25c0-1.11-.13-2.03-.4-2.77-.27-.74-.63-1.32-1.1-1.75-.46-.43-1.01-.74-1.64-.92-.63-.18-1.3-.27-2.04-.27-.57,0-1.06,0-1.48.01-.42,0-.82.03-1.23.06v14.61c.39.03.8.05,1.22.05h1.49c.73,0,1.41-.09,2.04-.27.63-.18,1.17-.49,1.64-.93.46-.44.83-1.03,1.1-1.75.27-.73.4-1.65.4-2.76v-3.31Z"></path><path class="cls-1" d="M283.84,421.72c0,.08-.02.16-.06.22-.04.07-.1.11-.18.12-.23.03-.54.05-.93.06-.39,0-.81.02-1.26.04-.45.02-.9.02-1.36.02h-1.22c-1.73,0-3.03-.35-3.9-1.05-.87-.7-1.31-1.87-1.31-3.5v-9.42c0-1.63.44-2.8,1.31-3.5.87-.7,2.17-1.05,3.9-1.05.36,0,.76,0,1.21.01.45,0,.89.02,1.33.03.44,0,.86.02,1.25.05.39.02.72.05.98.06.08.02.14.06.18.12.04.07.06.14.06.22v1.22c0,.2-.09.29-.27.29h-4.72c-.65,0-1.18.05-1.57.13-.39.09-.69.24-.91.44-.21.2-.35.47-.43.79-.07.33-.11.72-.11,1.17v3.4h7.51c.13,0,.25.05.34.15.1.1.15.21.15.34v.92c0,.13-.05.24-.15.34-.1.1-.21.14-.34.14h-7.51v4.13c0,.48.04.87.11,1.19.07.32.22.58.43.79.21.21.51.35.91.44.39.09.91.13,1.57.13h4.72c.18,0,.27.1.27.29v1.25ZM282.37,398.93c0,.07-.03.13-.1.2l-2.77,3.08c-.11.13-.2.23-.27.28-.07.06-.16.09-.29.09h-1.32c-.15,0-.22-.06-.22-.17,0-.1.03-.18.1-.24l2.4-3.04c.11-.13.2-.22.27-.28.07-.06.17-.09.32-.09h1.62c.18,0,.27.06.27.17Z"></path><path class="cls-1" d="M297.42,417.29c0,.59-.09,1.17-.27,1.76-.18.59-.49,1.11-.94,1.58-.45.47-1.07.84-1.85,1.13-.78.28-1.78.43-2.99.43-.86,0-1.62-.04-2.28-.11-.65-.07-1.25-.15-1.79-.23-.21-.03-.34-.08-.39-.15-.05-.07-.07-.16-.07-.29v-.98c0-.13.04-.23.12-.29.08-.07.18-.1.29-.1h.07c.28.03.59.06.94.07.35.02.71.03,1.08.04.37,0,.73.02,1.08.02.35,0,.67.01.94.01.73,0,1.34-.07,1.82-.21.48-.14.86-.34,1.14-.59.28-.25.47-.56.59-.92.11-.36.17-.75.17-1.17,0-.31-.05-.59-.15-.84-.1-.25-.26-.5-.49-.75-.23-.24-.53-.5-.91-.77-.38-.27-.84-.58-1.4-.92l-2.37-1.44c-1.13-.68-1.97-1.37-2.53-2.07-.56-.69-.84-1.53-.84-2.51,0-1.48.51-2.58,1.53-3.28,1.02-.7,2.47-1.05,4.34-1.05.36,0,.74,0,1.14.02.4.02.79.04,1.17.06.38.02.75.06,1.09.1.34.04.63.08.86.11.28.05.42.19.42.42v1.05c0,.26-.14.39-.42.39h-.05c-.54-.03-1.2-.06-1.97-.1-.77-.03-1.52-.05-2.24-.05-1.27,0-2.19.16-2.75.49-.56.33-.84.94-.84,1.84,0,.57.21,1.07.63,1.49.42.42,1.1.91,2.03,1.47l2.25,1.35c.7.42,1.29.83,1.78,1.22.49.39.89.78,1.2,1.18.31.39.53.8.66,1.22.13.42.2.88.2,1.37"></path><path class="cls-1" d="M302.9,421.87c-.08.1-.19.15-.32.15h-1.35c-.13,0-.24-.05-.32-.15-.08-.1-.12-.21-.12-.34v-17.23c0-.13.04-.24.12-.33.08-.09.19-.13.32-.13h1.35c.13,0,.24.05.32.13.08.09.12.2.12.33v17.23c0,.13-.04.24-.12.34"></path><path class="cls-1" d="M325.03,421.77c0,.16-.11.24-.32.24h-1.91c-.21,0-.39-.08-.54-.24l-6.9-8.4v8.15c0,.13-.04.24-.12.34-.08.1-.19.15-.32.15h-1.35c-.13,0-.24-.05-.32-.15-.08-.1-.12-.21-.12-.34v-17.23c0-.13.05-.24.14-.33.09-.09.2-.13.33-.13h1.3c.13,0,.24.05.33.13.09.09.13.2.13.33v7.91l7.05-8.15c.08-.08.15-.14.21-.17.06-.03.15-.05.28-.05h1.76c.23,0,.34.09.34.27,0,.1-.03.18-.1.24l-7.37,8.32,7.37,8.81c.08.08.12.18.12.29"></path><path class="cls-1" d="M338.07,413.35c-.1.1-.21.14-.34.14h-7.51v8.03c0,.13-.05.25-.15.34-.1.1-.21.15-.34.15h-1.25c-.13,0-.24-.05-.34-.15-.1-.1-.15-.21-.15-.34v-13.31c0-1.63.44-2.8,1.31-3.5.87-.7,2.17-1.05,3.9-1.05.36,0,.76,0,1.21.01.45,0,.89.02,1.33.03.44,0,.86.02,1.25.05.39.02.72.05.98.06.08.02.14.06.18.12.04.07.06.14.06.22v1.22c0,.2-.09.29-.27.29h-4.72c-.65,0-1.17.05-1.57.13-.39.09-.69.24-.91.44-.21.21-.36.47-.43.8-.07.33-.11.72-.11,1.17v3.4h7.51c.13,0,.24.05.34.14.1.1.15.21.15.34v.92c0,.13-.05.24-.15.34"></path><path class="cls-1" d="M352.68,405.71h-4.77v15.81c0,.13-.04.24-.12.34-.08.1-.19.15-.32.15h-1.35c-.13,0-.24-.05-.32-.15-.08-.1-.12-.21-.12-.34v-15.81h-4.77c-.13,0-.24-.03-.34-.1-.1-.06-.15-.16-.15-.29v-1.06c0-.13.05-.23.15-.31.1-.08.21-.12.34-.12h11.77c.31,0,.47.14.47.43v1.06c0,.26-.15.39-.47.39"></path><path class="cls-1" d="M355.68,421.84c-.09.1-.2.15-.33.15h-1.17c-.13,0-.24-.05-.33-.15-.09-.1-.13-.21-.13-.34v-2.28c0-.13.05-.24.13-.33.09-.09.2-.13.33-.13h1.17c.13,0,.24.05.33.13.09.09.13.2.13.33v2.28c0,.13-.04.24-.13.34"></path><path class="cls-2" d="M58.99,310.17c-.45.38-.98.56-1.58.56h-19.74v68.47c0,.6-.23,1.13-.68,1.58-.45.45-.98.68-1.58.68h-11.17c-.6,0-1.13-.22-1.58-.68-.45-.45-.68-.98-.68-1.58v-68.47H2.26c-.6,0-1.13-.19-1.58-.56-.45-.38-.68-.86-.68-1.47v-8.91c0-.6.23-1.11.68-1.52.45-.41.98-.62,1.58-.62h55.16c.6,0,1.13.21,1.58.62.45.41.68.92.68,1.52v8.91c0,.6-.23,1.09-.68,1.47"></path><path class="cls-1" d="M166.64,357.99c0,4.51-.81,8.31-2.43,11.39-1.62,3.08-3.91,5.58-6.88,7.5-2.97,1.92-6.56,3.31-10.77,4.17-4.21.86-8.95,1.3-14.21,1.3-4.59,0-8.55-.11-11.9-.34-3.35-.23-5.88-.53-7.61-.9-1.88-.38-3.25-.96-4.12-1.75-.87-.79-1.3-2.24-1.3-4.34v-71.06c0-2.03.39-3.48,1.18-4.34.79-.86,2.09-1.45,3.89-1.75,1.5-.23,3.91-.47,7.22-.73,3.31-.26,7.18-.39,11.62-.39,5.11,0,9.79.39,14.04,1.18,4.25.79,7.91,2.09,11,3.89,3.08,1.8,5.47,4.15,7.16,7.05,1.69,2.9,2.54,6.49,2.54,10.77v2.26c0,3.76-.87,7.16-2.59,10.21-1.73,3.05-4.33,5.32-7.78,6.82,3.46,1.5,6.15,3.67,8.07,6.49,1.92,2.82,2.88,6.37,2.88,10.66v1.92ZM150.85,320.48c0-3.93-1.45-6.72-4.34-8.39-2.9-1.66-7.95-2.49-15.17-2.49-1.35,0-2.76.02-4.23.05-1.47.04-2.8.1-4,.17v23.01h14.32c2.63,0,4.81-.28,6.54-.85,1.73-.57,3.1-1.34,4.12-2.32,1.02-.98,1.73-2.14,2.14-3.46.41-1.32.62-2.7.62-4.14v-1.59ZM151.3,356.3c0-1.58-.23-3.08-.68-4.51-.45-1.43-1.22-2.69-2.31-3.78-1.09-1.09-2.52-1.97-4.29-2.65-1.77-.68-3.97-1.02-6.6-1.02h-14.32v24.82c1.35,0,2.93.04,4.74.12,1.81.07,3.31.11,4.51.11,3.61,0,6.62-.23,9.02-.68,2.41-.45,4.34-1.17,5.81-2.14,1.47-.98,2.52-2.2,3.16-3.67.64-1.47.96-3.18.96-5.13v-1.46Z"></path><path class="cls-1" d="M239.91,365.55c-1.54,4.06-3.69,7.33-6.43,9.81-2.75,2.48-6.02,4.27-9.81,5.36-3.8,1.09-7.95,1.64-12.46,1.64s-8.67-.55-12.46-1.64c-3.8-1.09-7.07-2.87-9.81-5.36-2.75-2.48-4.89-5.75-6.43-9.81-1.54-4.06-2.31-9.1-2.31-15.11v-50.65c0-.6.23-1.11.68-1.52.45-.41.98-.62,1.58-.62h11.17c.6,0,1.13.21,1.58.62.45.41.68.92.68,1.52v50.72c0,3.24.23,6.05.68,8.42.45,2.37,1.26,4.35,2.43,5.93,1.16,1.58,2.72,2.75,4.68,3.5,1.96.76,4.47,1.13,7.56,1.13s5.51-.38,7.5-1.13c1.99-.75,3.57-1.92,4.74-3.5,1.17-1.58,1.97-3.56,2.43-5.93.45-2.37.68-5.18.68-8.42v-50.72c0-.6.23-1.11.68-1.52.45-.41.98-.62,1.58-.62h11.17c.6,0,1.13.21,1.58.62.45.41.68.92.68,1.52v50.65c0,6.02-.77,11.05-2.31,15.11"></path><path class="cls-1" d="M309.33,358.78c0,2.86-.49,5.7-1.47,8.52-.98,2.82-2.61,5.34-4.91,7.56-2.29,2.22-5.34,4.02-9.14,5.41-3.8,1.39-8.52,2.09-14.16,2.09-4.29,0-8.01-.19-11.17-.56-3.16-.38-6.09-.86-8.8-1.47-.6-.15-1.11-.41-1.52-.79-.41-.38-.62-.86-.62-1.47v-8.12c0-.6.21-1.11.62-1.52.41-.41.92-.62,1.52-.62h.23c1.13.15,2.61.28,4.46.39,1.84.11,3.74.23,5.7.34,1.95.11,3.82.21,5.58.28,1.77.08,3.18.11,4.23.11,5.04,0,8.48-.86,10.32-2.6,1.84-1.73,2.76-4.25,2.76-7.56,0-1.13-.15-2.12-.45-2.99-.3-.86-.83-1.71-1.58-2.54-.75-.83-1.73-1.67-2.93-2.54-1.2-.86-2.74-1.86-4.62-2.99l-14.89-8.91c-2.63-1.58-4.79-3.16-6.49-4.74-1.69-1.58-3.05-3.21-4.06-4.91-1.02-1.69-1.73-3.46-2.14-5.3-.41-1.84-.62-3.74-.62-5.7,0-3.08.49-5.94,1.47-8.57.98-2.63,2.58-4.91,4.79-6.82,2.22-1.92,5.11-3.4,8.69-4.46,3.57-1.05,7.99-1.58,13.25-1.58,1.88,0,3.87.06,5.98.17,2.1.11,4.17.28,6.2.51,2.03.23,3.87.45,5.53.68,1.65.23,2.97.45,3.95.68.6.15,1.09.39,1.47.73.38.34.56.81.56,1.41v8.35c0,.6-.17,1.09-.51,1.47-.34.38-.81.56-1.41.56h-.23c-3.76-.38-7.48-.66-11.17-.85-3.69-.19-7.37-.28-11.05-.28-4.21,0-7.24.7-9.08,2.09-1.84,1.39-2.76,3.37-2.76,5.92,0,.9.13,1.75.39,2.54.26.79.75,1.58,1.47,2.37.71.79,1.67,1.6,2.88,2.43,1.2.83,2.71,1.73,4.51,2.71l13.54,7.56c3.08,1.73,5.64,3.48,7.67,5.24,2.03,1.77,3.63,3.59,4.79,5.47,1.16,1.88,1.99,3.83,2.48,5.87.49,2.03.73,4.17.73,6.43"></path><path class="cls-1" d="M375.54,380.78c-.45.45-.98.68-1.58.68h-49.29c-1.65,0-3.03-.32-4.12-.96-1.09-.64-1.64-1.71-1.64-3.21v-6.2c0-.68.09-1.35.28-2.03.19-.68.58-1.43,1.18-2.26l35.76-53.58c.23-.3.34-.64.34-1.02,0-.6-.38-.9-1.13-.9h-31.36c-1.43,0-2.14-.68-2.14-2.03v-9.48c0-1.43.71-2.14,2.14-2.14h45.46c1.65,0,3.06.34,4.23,1.01,1.17.68,1.75,1.77,1.75,3.27v6.54c0,.83-.15,1.63-.45,2.43-.3.79-.68,1.52-1.13,2.2l-35.19,52.68c-.3.38-.45.79-.45,1.24s.34.68,1.02.68h34.74c.6,0,1.13.19,1.58.56.45.38.68.87.68,1.46v9.48c0,.6-.22,1.13-.68,1.58"></path><path class="cls-3" d="M68.92,325.46c1.97-1.96,3.88-3.85,6.2-6.15.76.93,1.54,1.96,2.41,2.92,2.56,2.86,5.51,5.44,7.66,8.58,3.9,5.7,3.3,13.96-1.26,19.09-2.88,3.23-6.25,6.02-9.42,9.02-1.64-1.71-3.53-3.68-5.62-5.87,2.43-2.38,4.94-4.83,7.45-7.29,3.83-3.77,3.82-8.98.02-12.77-2.46-2.45-4.87-4.94-7.42-7.53"></path></g></svg>