<svg xmlns="http://www.w3.org/2000/svg" id="Layer_2" data-name="Layer 2" viewBox="0 0 737.36 257.55"><defs><style>      .cls-1 {        fill: #1585ae;      }      .cls-1, .cls-2, .cls-3 {        stroke-width: 0px;      }      .cls-2 {        fill: #b81d47;      }      .cls-3 {        fill: #fff;      }    </style></defs><g id="Layer_2-2" data-name="Layer 2"><g id="Layer_1-2" data-name="Layer 1-2"><path class="cls-1" d="M243.31,222.61c0-3.09,2.51-5.6,5.6-5.6h34.25c-.45-8.64-3.42-18.22-9.24-28.29l-6.56-11.36c-4.37-7.57-36.02-62.38-58.61-101.51h-70.78c-1.63,0-4.58.32-6.17.67-.6.15-2.53.88-3.45,2.24-1.7,2.51-1.83,6.62-1.78,7.58.17,2.79-.45,6.68-1.49,9.36l-18.76,61.49c-.41,1.31-.77,3.67-.84,5.2h80.97v-63.57c0-3.09,2.5-5.6,5.6-5.6s5.6,2.51,5.6,5.6v67.92c.05.4.08.82.08,1.25,0,3.09-1.38,5.6-3.1,5.6h-89.17v43.42h62.02c3.09,0,5.6,2.51,5.6,5.6s-2.5,5.6-5.6,5.6h-67.57c-2.76,0-5.04-2.01-5.5-4.64-.09-.4-.14-.8-.14-1.22v-59.48c0-2.61.59-6.46,1.37-8.95l18.82-61.68c.05-.16.11-.32.17-.48.46-1.13.86-3.51.78-4.72,0-.12-.02-.39-.02-.74h-10.68v11.22c0,3.27-2.68,5.93-5.95,5.91l-5.03-.03c-3.27-.02-5.94-2.71-5.94-5.98v-16.33c0-3.27,2.68-5.93,5.94-5.91l4.68.02c.33-.06.66-.1,1.01-.1h18.23c.41-.88.88-1.76,1.45-2.6,3.58-5.28,9.64-6.74,10.32-6.89,2.42-.53,6.1-.93,8.57-.93h64.32c-6.43-11.14-11.61-20.11-14.39-24.93l-6.56-11.36c-21.85-37.85-57.61-37.85-79.46,0l-6.56,11.36c-12.45,21.57-58.1,100.63-58.1,100.63-7.81,13.53-15.15,26.25-21.36,37l-6.56,11.36c-21.85,37.85-3.97,68.81,39.73,68.81h185.15c26.77,0,43.83-11.63,48.02-29.33h-33.31c-3.09,0-5.6-2.51-5.6-5.6M69.37,228.02H25.59c-3.09,0-5.6-2.51-5.6-5.6s2.51-5.6,5.6-5.6h43.78c3.09,0,5.6,2.51,5.6,5.6s-2.5,5.6-5.6,5.6ZM208.35,244.88c-14.08,0-25.53-11.45-25.53-25.53s11.45-25.53,25.53-25.53,25.53,11.45,25.53,25.53-11.45,25.53-25.53,25.53Z"></path><path class="cls-1" d="M208.35,205.01c-7.91,0-14.34,6.43-14.34,14.34s6.43,14.34,14.34,14.34,14.34-6.43,14.34-14.34-6.43-14.34-14.34-14.34"></path><path class="cls-3" d="M346.31,198.93h-5.43v17.99c0,.15-.05.28-.14.39-.09.11-.21.17-.36.17h-1.53c-.15,0-.27-.06-.36-.17s-.14-.24-.14-.39v-17.99h-5.43c-.15,0-.28-.04-.39-.11-.11-.07-.17-.18-.17-.33v-1.21c0-.15.05-.27.17-.36.11-.09.24-.14.39-.14h13.4c.35,0,.53.17.53.5v1.21c0,.29-.18.44-.53.44"></path><path class="cls-3" d="M362.14,217.04c0,.3-.16.44-.47.44h-1.64c-.13,0-.23-.04-.31-.12-.07-.08-.13-.18-.17-.29l-1.81-6.41h-7.22l-1.78,6.41c-.04.11-.1.21-.19.29-.09.08-.2.12-.31.12h-1.64c-.32,0-.47-.15-.47-.44,0-.09,0-.16.03-.2l5.15-18.13c.11-.43.27-.78.49-1.04.21-.27.45-.48.71-.64.26-.16.53-.27.82-.33s.56-.1.82-.1.53.03.81.08.55.16.81.32.5.37.71.64.38.62.49,1.04l5.15,18.16s.03.1.03.2M354.67,199.29c-.09-.33-.27-.5-.53-.5-.28,0-.46.17-.56.5l-2.53,9.17h6.16l-2.54-9.17Z"></path><path class="cls-3" d="M375.37,198.93h-5.43v17.99c0,.15-.05.28-.14.39-.09.11-.21.17-.36.17h-1.53c-.15,0-.27-.06-.36-.17s-.14-.24-.14-.39v-17.99h-5.43c-.15,0-.28-.04-.39-.11-.11-.07-.17-.18-.17-.33v-1.21c0-.15.05-.27.17-.36.11-.09.24-.14.39-.14h13.4c.35,0,.53.17.53.5v1.21c0,.29-.18.44-.53.44"></path><path class="cls-3" d="M391.19,217.04c0,.3-.16.44-.47.44h-1.64c-.13,0-.23-.04-.31-.12-.07-.08-.13-.18-.17-.29l-1.81-6.41h-7.22l-1.78,6.41c-.04.11-.1.21-.2.29-.09.08-.19.12-.31.12h-1.64c-.32,0-.47-.15-.47-.44,0-.09,0-.16.03-.2l5.15-18.13c.11-.43.27-.78.49-1.04.21-.27.45-.48.71-.64.26-.16.53-.27.82-.33s.56-.1.82-.1.53.03.81.08.55.16.81.32.5.37.71.64.38.62.49,1.04l5.15,18.16s.03.1.03.2M383.73,199.29c-.09-.33-.27-.5-.53-.5-.28,0-.46.17-.56.5l-2.53,9.17h6.16l-2.54-9.17Z"></path><path class="cls-3" d="M407.77,211.77c0,1.17-.22,2.14-.65,2.9-.44.76-1.03,1.37-1.78,1.81-.75.45-1.62.76-2.6.93-.98.18-2.01.26-3.09.26-.93,0-1.78-.02-2.56-.05-.78-.04-1.44-.1-1.98-.2-.32-.04-.55-.13-.7-.28-.15-.15-.22-.4-.22-.75v-18.55c0-.63.3-.98.89-1.03.46-.06,1.09-.11,1.88-.15.79-.05,1.64-.07,2.55-.07,1.11,0,2.16.08,3.15.25.98.17,1.85.45,2.59.86s1.33.95,1.77,1.64.65,1.56.65,2.61v.45c0,1.04-.26,1.93-.78,2.68s-1.25,1.31-2.2,1.68c.97.34,1.72.9,2.27,1.7s.82,1.74.82,2.82v.49ZM405.12,201.97c0-.67-.13-1.21-.4-1.63s-.65-.75-1.14-.99c-.49-.24-1.08-.4-1.76-.49-.69-.08-1.45-.13-2.3-.13-.48,0-.96,0-1.44.03-.48.02-.92.04-1.31.06v6.91h4.28c.8,0,1.46-.09,1.99-.26.53-.18.95-.42,1.26-.72.31-.31.53-.66.65-1.06s.18-.82.18-1.27v-.45h0ZM405.23,211.28c0-.47-.06-.91-.19-1.34s-.36-.81-.68-1.13c-.32-.33-.75-.59-1.29-.78-.54-.2-1.21-.29-2.03-.29h-4.28v7.69c.46.02.94.04,1.43.07.49.03.98.04,1.46.04.85,0,1.62-.06,2.32-.17.69-.11,1.28-.31,1.76-.59s.85-.66,1.11-1.15c.26-.48.39-1.11.39-1.87v-.48h0Z"></path><path class="cls-3" d="M425.46,217.04c0,.3-.16.45-.47.45h-1.64c-.13,0-.23-.04-.31-.12-.07-.08-.13-.18-.17-.29l-1.81-6.41h-7.21l-1.78,6.41c-.04.11-.1.21-.2.29-.09.08-.19.12-.31.12h-1.64c-.32,0-.47-.15-.47-.45,0-.09,0-.16.03-.2l5.15-18.13c.11-.43.27-.78.49-1.05.21-.27.45-.48.71-.64.26-.16.53-.27.82-.33.29-.07.56-.1.82-.1s.53.03.81.08c.28.06.55.16.81.32s.5.37.71.64.38.62.49,1.05l5.15,18.16s.03.1.03.2M417.99,199.29c-.09-.33-.27-.5-.53-.5-.28,0-.46.17-.56.5l-2.54,9.17h6.16l-2.54-9.17h.01ZM421.69,191.21c0,.08-.04.15-.11.22l-3.15,3.51c-.13.15-.23.26-.31.32-.07.07-.18.1-.33.1h-1.5c-.17,0-.25-.07-.25-.19,0-.11.04-.2.11-.28l2.73-3.46c.13-.15.23-.25.31-.32.07-.07.2-.1.36-.1h1.84c.2,0,.31.06.31.19h-.01Z"></path><path class="cls-3" d="M442.77,217.25c-.16.16-.35.24-.57.24h-1.71c-.45,0-.74-.15-.89-.45l-8.61-16.35c-.04-.06-.06-.08-.08-.08s-.03.03-.03.08v16.27c0,.15-.05.27-.14.38-.09.1-.21.15-.36.15h-1.45c-.15,0-.27-.02-.36-.05-.09-.04-.14-.13-.14-.28v-19.58c0-.22.08-.41.24-.56s.35-.22.57-.22h1.53c.39,0,.65.04.78.13.13.08.25.23.36.43l8.55,16.27.06.08s.03-.03.03-.08v-16.3c0-.15.05-.27.14-.38.09-.1.21-.15.36-.15h1.46c.15,0,.27.05.36.15.09.1.14.23.14.38v19.36c0,.22-.08.41-.23.57"></path><path class="cls-3" d="M460.03,197.18c0,.09-.03.2-.08.31l-4.32,9.69c-.26.56-.51.97-.75,1.25s-.49.47-.75.58v7.91c0,.15-.05.28-.14.39-.09.11-.21.17-.36.17h-1.53c-.15,0-.27-.05-.36-.17-.09-.11-.14-.24-.14-.39v-7.91c-.26-.09-.51-.28-.75-.57-.24-.29-.49-.71-.75-1.27l-4.29-9.69c-.06-.11-.08-.21-.08-.31,0-.26.16-.39.47-.39h1.7c.09,0,.19.04.29.13.1.08.17.17.21.26l3.84,9.02c.15.32.27.52.36.6s.19.13.28.13.19-.04.28-.13c.09-.08.21-.28.36-.6l3.87-9.02c.04-.09.1-.18.18-.26s.18-.13.29-.13h1.7c.32,0,.47.13.47.39"></path><path class="cls-3" d="M475.43,217.04c0,.3-.16.44-.47.44h-1.64c-.13,0-.23-.04-.31-.12-.07-.08-.13-.18-.17-.29l-1.81-6.41h-7.21l-1.78,6.41c-.04.11-.1.21-.2.29-.09.08-.19.12-.31.12h-1.64c-.32,0-.47-.15-.47-.44,0-.09,0-.16.03-.2l5.15-18.13c.11-.43.27-.78.49-1.04.21-.27.45-.48.71-.64.26-.16.53-.27.82-.33s.56-.1.82-.1.53.03.81.08.55.16.81.32.5.37.71.64.38.62.49,1.04l5.15,18.16s.03.1.03.2M467.96,199.29c-.09-.33-.27-.5-.53-.5-.28,0-.46.17-.56.5l-2.53,9.17h6.16l-2.54-9.17Z"></path><path class="cls-3" d="M481.08,217.32c-.09.11-.21.17-.36.17h-1.53c-.15,0-.27-.05-.36-.17-.09-.11-.14-.24-.14-.39v-19.61c0-.15.05-.27.14-.38.09-.1.21-.15.36-.15h1.53c.15,0,.27.05.36.15.09.1.14.23.14.38v19.61c0,.15-.05.28-.14.39"></path><path class="cls-3" d="M506.27,217.21c0,.19-.12.28-.36.28h-2.17c-.24,0-.45-.09-.61-.28l-7.86-9.56v9.28c0,.15-.05.28-.14.39-.09.11-.21.17-.36.17h-1.53c-.15,0-.27-.06-.36-.17s-.14-.24-.14-.39v-19.61c0-.15.05-.28.15-.38s.23-.15.38-.15h1.48c.15,0,.27.05.38.15.1.1.15.23.15.38v9l8.02-9.28c.09-.09.17-.16.24-.2.07-.04.17-.06.32-.06h2.01c.26,0,.39.1.39.31,0,.11-.04.2-.11.28l-8.38,9.47,8.38,10.03c.09.09.14.2.14.33"></path><path class="cls-3" d="M522.93,208.93c0,1.54-.19,2.87-.56,3.97-.37,1.11-.89,2.01-1.56,2.72s-1.46,1.22-2.39,1.56c-.92.33-1.93.5-3.03.5s-2.11-.17-3.03-.5c-.92-.34-1.72-.85-2.39-1.56-.67-.71-1.2-1.61-1.58-2.72-.38-1.1-.57-2.43-.57-3.97v-3.59c0-1.54.19-2.86.57-3.97s.91-2.01,1.58-2.72c.67-.71,1.46-1.23,2.39-1.56.92-.33,1.93-.5,3.03-.5s2.11.17,3.03.5c.92.33,1.72.85,2.39,1.56.67.71,1.19,1.61,1.56,2.72s.56,2.43.56,3.97v3.59ZM520.34,205.34c0-1.17-.12-2.16-.35-2.98-.23-.82-.56-1.49-.99-2-.43-.52-.94-.9-1.56-1.13-.61-.23-1.3-.35-2.05-.35s-1.45.12-2.06.35c-.61.23-1.13.61-1.57,1.13s-.77,1.19-1,2c-.23.82-.35,1.81-.35,2.98v3.59c0,1.17.11,2.16.35,2.98.23.82.56,1.49.99,2.01.43.52.95.9,1.57,1.13.62.23,1.31.35,2.07.35s1.44-.12,2.05-.35c.61-.23,1.13-.61,1.56-1.13s.75-1.19.99-2.01c.23-.82.35-1.81.35-2.98v-3.59ZM514.04,194.39c0,.15-.06.27-.17.38-.11.1-.24.15-.39.15h-1.09c-.15,0-.28-.05-.39-.15-.11-.1-.17-.23-.17-.38v-2.26c0-.15.06-.28.17-.39.11-.11.24-.17.39-.17h1.09c.15,0,.28.06.39.17s.17.24.17.39v2.26ZM518.91,194.39c0,.15-.06.27-.17.38-.11.1-.24.15-.39.15h-1.09c-.15,0-.28-.05-.39-.15-.11-.1-.17-.23-.17-.38v-2.26c0-.15.06-.28.17-.39s.24-.17.39-.17h1.09c.15,0,.28.06.39.17s.17.24.17.39v2.26Z"></path><path class="cls-3" d="M538.55,217.34c-.11.09-.24.14-.39.14h-10.73c-.89,0-1.5-.13-1.82-.39s-.49-.76-.49-1.5c0-.24.03-.52.1-.83.07-.31.17-.57.32-.78l9.97-14.49c.05-.07.08-.15.08-.22,0-.13-.09-.19-.28-.19h-9.25c-.15,0-.28-.04-.39-.13-.11-.08-.17-.2-.17-.35v-1.33c0-.15.05-.27.17-.35.11-.08.24-.13.39-.13h9.92c.78,0,1.37.12,1.77.35.4.23.6.73.6,1.49,0,.26-.04.55-.11.86-.07.32-.19.58-.33.78l-9.94,14.51c-.06.09-.08.18-.08.25,0,.11.09.17.28.17h10c.15,0,.28.04.39.12s.17.2.17.35v1.31c0,.15-.06.27-.17.36"></path><path class="cls-1" d="M376.28,90.18c-.51.43-1.11.64-1.8.64h-22.47v77.93c0,.69-.26,1.28-.77,1.8-.51.52-1.11.77-1.8.77h-12.71c-.69,0-1.28-.26-1.8-.77-.51-.51-.77-1.11-.77-1.8v-77.93h-22.47c-.69,0-1.28-.21-1.8-.64-.51-.43-.77-.98-.77-1.67v-10.14c0-.68.26-1.26.77-1.73.51-.47,1.11-.7,1.8-.7h62.78c.68,0,1.28.24,1.8.7.51.47.77,1.05.77,1.73v10.14c0,.69-.26,1.24-.77,1.67"></path><path class="cls-3" d="M498.81,144.62c0,5.14-.92,9.46-2.76,12.97s-4.45,6.35-7.83,8.54c-3.38,2.18-7.47,3.77-12.26,4.75s-10.19,1.48-16.18,1.48c-5.22,0-9.74-.13-13.55-.39s-6.7-.6-8.67-1.03c-2.14-.43-3.7-1.09-4.68-1.99-.99-.9-1.48-2.54-1.48-4.94v-80.88c0-2.31.45-3.96,1.35-4.94s2.38-1.65,4.43-1.99c1.71-.26,4.45-.53,8.22-.84,3.76-.3,8.17-.45,13.22-.45,5.82,0,11.15.45,15.99,1.35,4.83.9,9.01,2.38,12.52,4.43,3.51,2.05,6.23,4.73,8.15,8.02,1.93,3.3,2.89,7.38,2.89,12.26v2.57c0,4.28-.99,8.15-2.95,11.62-1.97,3.47-4.92,6.06-8.86,7.77,3.94,1.71,7,4.17,9.18,7.38s3.27,7.25,3.27,12.13v2.18h0ZM480.84,101.92c0-4.47-1.65-7.65-4.94-9.55-3.3-1.89-9.05-2.84-17.27-2.84-1.54,0-3.15.02-4.81.06-1.67.04-3.19.11-4.56.19v26.19h16.3c3,0,5.48-.32,7.45-.97,1.97-.64,3.53-1.52,4.68-2.65,1.16-1.12,1.97-2.43,2.44-3.94.47-1.5.71-3.07.71-4.71v-1.81.03ZM481.35,142.69c0-1.8-.26-3.51-.77-5.14-.51-1.62-1.39-3.06-2.63-4.3s-2.87-2.25-4.88-3.02-4.52-1.16-7.51-1.16h-16.3v28.24c1.54,0,3.34.05,5.39.13,2.06.09,3.77.13,5.14.13,4.11,0,7.53-.26,10.27-.77,2.74-.51,4.94-1.33,6.61-2.44,1.67-1.11,2.87-2.51,3.6-4.17.73-1.67,1.09-3.62,1.09-5.84v-1.67h-.01Z"></path><path class="cls-3" d="M582.2,153.22c-1.76,4.62-4.2,8.34-7.32,11.17-3.13,2.83-6.85,4.86-11.17,6.1s-9.05,1.86-14.19,1.86-9.87-.62-14.19-1.86-8.05-3.27-11.17-6.1c-3.12-2.82-5.56-6.55-7.32-11.17-1.75-4.62-2.63-10.36-2.63-17.2v-57.65c0-.68.26-1.26.77-1.73s1.11-.7,1.8-.7h12.71c.68,0,1.28.24,1.8.71.51.47.77,1.05.77,1.74v57.74c0,3.69.26,6.88.77,9.58s1.43,4.95,2.76,6.75,3.1,3.13,5.33,3.98c2.22.86,5.09,1.29,8.6,1.29s6.27-.43,8.54-1.29c2.27-.86,4.06-2.18,5.39-3.98s2.25-4.05,2.76-6.75.77-5.89.77-9.58v-57.74c0-.69.26-1.26.77-1.74.51-.47,1.11-.71,1.8-.71h12.71c.68,0,1.28.24,1.8.7.51.47.77,1.05.77,1.73v57.65c0,6.85-.88,12.58-2.63,17.2"></path><path class="cls-2" d="M387.58,107.59c2.24-2.23,4.41-4.38,7.06-7.01.86,1.05,1.76,2.23,2.74,3.32,2.92,3.25,6.28,6.2,8.72,9.77,4.44,6.49,3.76,15.89-1.44,21.73-3.27,3.68-7.12,6.85-10.73,10.27-1.86-1.95-4.01-4.19-6.4-6.68,2.77-2.71,5.63-5.49,8.47-8.29,4.36-4.29,4.35-10.22.02-14.54-2.8-2.79-5.54-5.62-8.45-8.57"></path><path class="cls-3" d="M553.94,217.29c-.05.07-.12.12-.21.14-.37.06-1.04.11-2,.17-.97.05-2.11.08-3.43.08-.74,0-1.47-.06-2.19-.17-.71-.11-1.35-.35-1.91-.71s-1-.88-1.34-1.56c-.33-.68-.5-1.59-.5-2.74v-15.16c0-.15.05-.28.17-.39.11-.11.24-.17.39-.17h1.42c.15,0,.28.06.39.17s.17.24.17.39v15.16c0,.54.04.99.12,1.35s.25.66.49.89.59.4,1.03.5c.45.1,1.04.15,1.78.15h5.38c.2,0,.31.11.31.33v1.31c0,.09-.02.18-.07.25"></path><path class="cls-3" d="M567.7,217.4c-.05.07-.12.12-.21.14-.26.04-.61.06-1.06.07-.45,0-.92.02-1.43.04-.51.02-1.03.03-1.55.03h-1.39c-1.97,0-3.45-.4-4.44-1.2s-1.49-2.13-1.49-3.98v-10.73c0-1.86.5-3.18,1.49-3.98s2.47-1.2,4.44-1.2c.41,0,.87,0,1.38,0s1.02.02,1.52.03c.5,0,.98.03,1.42.05.45.03.82.05,1.11.07.09.02.16.06.21.14.05.07.07.16.07.25v1.39c0,.22-.1.33-.31.33h-5.38c-.74,0-1.34.05-1.78.15-.45.1-.79.27-1.03.5-.24.23-.4.54-.49.91-.08.37-.12.82-.12,1.34v3.87h8.55c.15,0,.28.05.39.16s.17.24.17.38v1.05c0,.15-.06.27-.17.38s-.24.16-.39.16h-8.55v4.7c0,.54.04.99.12,1.36.08.36.25.66.49.9.24.23.58.4,1.03.5s1.04.15,1.78.15h5.38c.2,0,.31.11.31.33v1.42c0,.09-.02.18-.07.25"></path><path class="cls-3" d="M585.02,217.21c0,.19-.12.28-.36.28h-2.17c-.24,0-.45-.09-.61-.28l-7.86-9.56v9.28c0,.15-.05.28-.14.39s-.21.17-.36.17h-1.53c-.15,0-.27-.06-.36-.17-.09-.11-.14-.24-.14-.39v-19.61c0-.15.05-.28.15-.38.1-.1.23-.15.38-.15h1.48c.15,0,.27.05.38.15.1.1.15.23.15.38v9l8.02-9.28c.09-.09.17-.16.24-.2s.17-.06.32-.06h2.01c.26,0,.39.1.39.31,0,.11-.04.2-.11.28l-8.38,9.47,8.38,10.03c.09.09.14.2.14.33"></path><path class="cls-3" d="M598.93,217.4c-.05.07-.12.12-.21.14-.26.04-.61.06-1.06.07-.45,0-.92.02-1.43.04-.51.02-1.03.03-1.55.03h-1.39c-1.97,0-3.45-.4-4.44-1.2s-1.49-2.13-1.49-3.98v-10.73c0-1.86.5-3.18,1.49-3.98s2.47-1.2,4.44-1.2c.41,0,.87,0,1.38,0s1.02.02,1.52.03c.5,0,.97.03,1.42.05.44.03.82.05,1.11.07.09.02.16.06.21.14.05.07.07.16.07.25v1.39c0,.22-.1.33-.31.33h-5.38c-.74,0-1.34.05-1.78.15-.45.1-.79.27-1.03.5-.24.23-.4.54-.49.91-.08.37-.13.82-.13,1.34v3.87h8.55c.15,0,.28.05.39.16s.17.24.17.38v1.05c0,.15-.06.27-.17.38s-.24.16-.39.16h-8.55v4.7c0,.54.04.99.13,1.36.08.36.25.66.49.9.24.23.59.4,1.03.5.45.1,1.04.15,1.78.15h5.38c.2,0,.31.11.31.33v1.42c0,.09-.02.18-.07.25"></path><path class="cls-3" d="M616.8,209.02c0,1.49-.2,2.78-.6,3.87-.4,1.1-.97,2-1.7,2.7-.73.71-1.62,1.23-2.66,1.57-1.04.34-2.2.52-3.48.52-.54,0-1.06,0-1.57-.03-.51-.02-.99-.04-1.45-.07-.46-.03-.86-.05-1.21-.08-.35-.03-.63-.06-.84-.1-.39-.06-.58-.29-.58-.7v-19.14c0-.41.2-.64.58-.7.2-.04.48-.07.84-.1.35-.03.76-.06,1.21-.08.46-.03.94-.05,1.45-.07s1.04-.03,1.57-.03c1.28,0,2.44.17,3.48.5s1.93.86,2.66,1.57c.73.72,1.3,1.62,1.7,2.7.4,1.09.6,2.38.6,3.89v3.78ZM614.27,205.24c0-1.26-.15-2.32-.46-3.15-.3-.84-.72-1.5-1.25-2-.53-.49-1.15-.84-1.86-1.05-.71-.2-1.49-.31-2.32-.31-.65,0-1.21,0-1.68,0s-.94.03-1.4.07v16.63c.44.04.91.06,1.39.06h1.69c.83,0,1.6-.1,2.32-.31.71-.21,1.33-.56,1.86-1.06.53-.5.94-1.17,1.25-1.99.31-.83.46-1.87.46-3.14v-3.77h0Z"></path><path class="cls-3" d="M632.21,217.15c0,.09-.02.18-.07.25-.05.08-.12.12-.21.14-.26.04-.61.06-1.06.07-.45,0-.93.02-1.44.04-.51.02-1.03.03-1.55.03h-1.39c-1.97,0-3.45-.4-4.44-1.2s-1.49-2.13-1.49-3.98v-10.72c0-1.86.5-3.18,1.49-3.98s2.47-1.2,4.44-1.2c.41,0,.87,0,1.38,0,.51,0,1.02.02,1.52.03.5,0,.98.03,1.42.06.45.03.82.05,1.11.07.09.02.16.07.21.14.05.07.07.16.07.25v1.39c0,.22-.1.33-.31.33h-5.38c-.74,0-1.34.05-1.78.15-.45.1-.79.27-1.03.5-.24.23-.4.53-.49.91-.08.37-.13.82-.13,1.34v3.87h8.55c.15,0,.28.06.39.17s.17.24.17.39v1.04c0,.15-.06.28-.17.38-.11.11-.24.16-.39.16h-8.55v4.7c0,.54.04.99.13,1.36.08.37.25.66.49.9.24.23.59.4,1.03.5.45.1,1.04.15,1.78.15h5.38c.2,0,.31.11.31.33v1.42h.01ZM630.54,191.21c0,.08-.04.15-.11.22l-3.15,3.51c-.13.15-.23.26-.31.32-.07.07-.19.1-.33.1h-1.5c-.17,0-.25-.07-.25-.19,0-.11.04-.2.11-.28l2.73-3.46c.13-.15.23-.25.31-.32.07-.07.2-.1.36-.1h1.84c.2,0,.31.06.31.19h0Z"></path><path class="cls-3" d="M647.67,212.11c0,.67-.1,1.34-.31,2.01-.2.67-.56,1.27-1.07,1.8s-1.21.96-2.1,1.28c-.89.33-2.03.49-3.4.49-.99,0-1.85-.04-2.59-.12-.74-.08-1.42-.17-2.03-.26-.24-.04-.39-.09-.45-.17-.05-.07-.08-.18-.08-.33v-1.11c0-.15.05-.26.14-.33s.2-.11.33-.11h.08c.32.04.67.06,1.07.08s.81.03,1.23.04c.42,0,.83.02,1.23.03.4,0,.76,0,1.07,0,.84,0,1.53-.08,2.08-.24s.98-.38,1.3-.67.54-.64.67-1.04c.13-.41.2-.85.2-1.34,0-.35-.06-.67-.17-.96-.11-.29-.3-.57-.56-.85s-.6-.57-1.03-.88c-.43-.31-.96-.65-1.59-1.04l-2.7-1.64c-1.28-.78-2.24-1.57-2.88-2.36s-.96-1.74-.96-2.86c0-1.69.58-2.93,1.74-3.73s2.81-1.2,4.94-1.2c.41,0,.84,0,1.3.03.45.02.9.04,1.34.07.44.03.85.06,1.24.11s.72.09.98.12c.32.06.47.21.47.47v1.2c0,.3-.16.45-.47.45h-.06c-.61-.04-1.36-.07-2.24-.11s-1.73-.06-2.55-.06c-1.45,0-2.49.19-3.13.56s-.96,1.07-.96,2.09c0,.65.24,1.22.72,1.7s1.25,1.04,2.31,1.67l2.56,1.53c.8.48,1.47.95,2.03,1.39.56.45,1.01.89,1.36,1.34s.6.91.75,1.39.22,1,.22,1.56"></path><path class="cls-3" d="M653.91,217.32c-.09.11-.21.17-.36.17h-1.53c-.15,0-.27-.05-.36-.17-.09-.11-.14-.24-.14-.39v-19.61c0-.15.05-.27.14-.38.09-.1.21-.15.36-.15h1.53c.15,0,.27.05.36.15.09.1.14.23.14.38v19.61c0,.15-.05.28-.14.39"></path><path class="cls-3" d="M661.22,145.51c0,3.25-.56,6.48-1.67,9.69s-2.97,6.08-5.58,8.6c-2.61,2.53-6.08,4.58-10.4,6.16s-9.69,2.38-16.11,2.38c-4.88,0-9.12-.22-12.71-.64-3.59-.43-6.93-.98-10.01-1.67-.69-.17-1.26-.47-1.73-.9s-.71-.98-.71-1.67v-9.24c0-.68.24-1.26.71-1.73.47-.47,1.05-.71,1.73-.71h.26c1.28.17,2.97.32,5.07.45,2.1.13,4.26.26,6.48.39s4.34.24,6.36.32c2.01.09,3.61.13,4.81.13,5.73,0,9.65-.98,11.75-2.95s3.15-4.84,3.15-8.6c0-1.28-.17-2.42-.51-3.4s-.94-1.95-1.8-2.89-1.97-1.9-3.34-2.89c-1.37-.98-3.12-2.12-5.26-3.4l-16.95-10.14c-3-1.8-5.46-3.6-7.38-5.39-1.93-1.8-3.47-3.66-4.62-5.59-1.16-1.93-1.97-3.94-2.44-6.03-.47-2.1-.71-4.26-.71-6.48,0-3.51.56-6.76,1.67-9.76s2.93-5.58,5.46-7.77c2.52-2.18,5.82-3.87,9.89-5.07s9.09-1.8,15.09-1.8c2.14,0,4.41.06,6.8.19,2.4.13,4.75.32,7.06.58s4.41.51,6.29.77c1.88.26,3.38.51,4.49.77.68.17,1.24.45,1.67.83.43.39.64.92.64,1.6v9.5c0,.69-.19,1.24-.58,1.67s-.92.64-1.6.64h-.26c-4.28-.43-8.52-.75-12.71-.96-4.2-.21-8.39-.32-12.58-.32-4.8,0-8.24.79-10.34,2.37-2.1,1.59-3.15,3.83-3.15,6.74,0,1.03.15,1.99.45,2.89s.85,1.8,1.67,2.7c.81.9,1.9,1.82,3.27,2.76s3.08,1.97,5.14,3.08l15.41,8.6c3.51,1.97,6.42,3.96,8.73,5.97s4.13,4.09,5.46,6.23,2.27,4.37,2.82,6.68c.56,2.31.84,4.75.84,7.32"></path><path class="cls-3" d="M679.09,217.21c0,.19-.12.28-.36.28h-2.17c-.24,0-.45-.09-.61-.28l-7.86-9.56v9.28c0,.15-.05.28-.14.39s-.21.17-.36.17h-1.53c-.15,0-.27-.06-.36-.17-.09-.11-.14-.24-.14-.39v-19.61c0-.15.05-.28.15-.38.1-.1.23-.15.38-.15h1.48c.15,0,.27.05.38.15.1.1.15.23.15.38v9l8.02-9.28c.09-.09.17-.16.24-.2.06-.04.17-.06.32-.06h2c.26,0,.39.1.39.31,0,.11-.04.2-.11.28l-8.39,9.47,8.39,10.03c.09.09.14.2.14.33"></path><path class="cls-3" d="M693.94,207.62c-.11.11-.24.16-.39.16h-8.55v9.14c0,.15-.06.28-.17.39s-.24.17-.39.17h-1.42c-.15,0-.28-.06-.39-.17s-.17-.24-.17-.39v-15.15c0-1.86.5-3.18,1.49-3.98s2.47-1.2,4.44-1.2c.41,0,.87,0,1.38,0s1.02.02,1.52.03c.5,0,.98.03,1.42.05.45.03.82.05,1.11.07.09.02.16.07.21.14.05.07.07.16.07.25v1.39c0,.22-.1.33-.31.33h-5.38c-.74,0-1.34.05-1.78.15-.45.1-.79.27-1.03.5-.24.23-.41.53-.49.91-.08.37-.13.82-.13,1.34v3.87h8.55c.15,0,.28.05.39.16s.17.24.17.38v1.05c0,.15-.06.27-.17.38"></path><path class="cls-3" d="M710.57,198.93h-5.43v17.99c0,.15-.05.28-.14.39s-.22.17-.36.17h-1.53c-.15,0-.27-.06-.36-.17-.09-.11-.14-.24-.14-.39v-17.99h-5.43c-.15,0-.28-.04-.39-.11s-.17-.18-.17-.33v-1.21c0-.15.06-.27.17-.36s.24-.14.39-.14h13.4c.35,0,.53.17.53.5v1.21c0,.29-.18.44-.53.44"></path><path class="cls-3" d="M713.98,217.29c-.1.11-.23.17-.38.17h-1.34c-.15,0-.27-.06-.38-.17-.1-.11-.15-.24-.15-.39v-2.59c0-.15.05-.27.15-.38.1-.1.23-.15.38-.15h1.34c.15,0,.27.05.38.15.1.1.15.23.15.38v2.59c0,.15-.05.28-.15.39"></path><path class="cls-3" d="M736.58,170.55c-.51.51-1.11.77-1.8.77h-56.11c-1.88,0-3.44-.36-4.69-1.09-1.24-.73-1.86-1.95-1.86-3.66v-7.06c0-.77.11-1.54.32-2.31s.66-1.62,1.35-2.57l40.7-60.98c.26-.34.39-.72.39-1.16,0-.68-.43-1.03-1.28-1.03h-35.69c-1.63,0-2.44-.77-2.44-2.31v-10.78c0-1.62.81-2.44,2.44-2.44h51.74c1.88,0,3.49.38,4.81,1.15,1.33.77,1.99,2.01,1.99,3.72v7.45c0,.94-.17,1.86-.51,2.76s-.77,1.73-1.28,2.5l-40.06,59.96c-.34.43-.51.9-.51,1.42s.39.77,1.16.77h39.54c.69,0,1.28.21,1.8.64.51.43.77.99.77,1.67v10.78c0,.69-.26,1.28-.77,1.8"></path></g></g></svg>